IMDB:  
http://www.imdb.com/title/tt1686784/

Language: Chinese

Subtitles: Chinese (hardcoded), English (srt file)

Display Resolution: 900x382


Quote:


General
Complete name                            : Flying Swords of Dragon Gate 2011 HDTV x264 AC3-SSN.mkv
Format                                   : Matroska
Format version                           : Version 2
File size                                : 1.28 GiB
Duration                                 : 2h 2mn
Overall bit rate                         : 1 497 Kbps
Encoded date                             : UTC 2012-02-18 19:46:22
Writing application                      : mkvmerge v5.3.0 ('I could have danced') built on Feb  9 2012 10:38:07
Writing library                          : libebml v1.2.3 + libmatroska v1.3.0

Video
ID                                       : 1
Format                                   : AVC
Format/Info                              : Advanced Video Codec
Format profile                           : High@L4.1
Format settings, CABAC                   : Yes
Format settings, ReFrames                : 5 frames
Codec ID                                 : V_MPEG4/ISO/AVC
Duration                                 : 2h 2mn
Bit rate                                 : 1 368 Kbps
Width                                    : 748 pixels
Height                                   : 382 pixels
Display aspect ratio                     : 2.35:1
Frame rate                               : 24.000 fps
Color space                              : YUV
Chroma subsampling                       : 4:2:0
Bit depth                                : 8 bits
Scan type                                : Progressive
Bits/(Pixel*Frame)                       : 0.199
Stream size                              : 1.14 GiB (89%)
Writing library                          : x264 core 120 r2164 da19765
Language                                 : English
Default                                  : Yes
Forced                                   : No

Audio
ID                                       : 2
Format                                   : AC-3
Format/Info                              : Audio Coding 3
Mode extension                           : CM (complete main)
Codec ID                                 : A_AC3
Duration                                 : 2h 2mn
Bit rate mode                            : Constant
Bit rate                                 : 128 Kbps
Channel(s)                               : 2 channels
Channel positions                        : Front: L R
Sampling rate                            : 48.0 KHz
Bit depth                                : 16 bits
Compression mode                         : Lossy
Stream size                              : 112 MiB (9%)
Language                                 : Chinese
Default                                  : Yes
Forced                                   : No 

 
http://2.firepic.org/2/images/2012-02/18/dm3w7oc1ydsn.png
 
http://2.firepic.org/2/images/2012-02/18/5qzbuy4q5axp.png
 
http://2.firepic.org/2/images/2012-02/18/eqglojarw4et.png